<?xml version="1.0" encoding="utf-8"?>
<svg xmlns="http://www.w3.org/2000/svg"
	xmlns:xlink="http://www.w3.org/1999/xlink"
	width="38px" height="40px" viewBox="0 0 38 40">
<path fillRule="evenodd" d="M 36.66 34.4C 36.66 34.4 37.22 34.4 37.22 34.4 37.22 34.4 37.78 34.4 37.78 34.4 37.9 34.4 38 34.5 38 34.63 38 34.63 38 35.77 38 35.77 38 35.9 37.9 36 37.78 36 37.78 36 25.69 36 25.69 36 25.57 36 25.47 35.9 25.47 35.77 25.47 35.77 25.47 34.63 25.47 34.63 25.47 34.5 25.57 34.4 25.69 34.4 25.69 34.4 26.81 34.4 26.81 34.4 26.94 34.4 27.04 34.3 27.04 34.17 27.04 34.17 27.04 32.8 27.04 32.8 27.04 32.8 27.04 32.23 27.04 32.23 27.04 32.1 26.94 32 26.81 32 26.81 32 25.69 32 25.69 32 25.57 32 25.47 31.9 25.47 31.77 25.47 31.77 25.47 30.63 25.47 30.63 25.47 30.5 25.57 30.4 25.69 30.4 25.69 30.4 37.78 30.4 37.78 30.4 37.9 30.4 38 30.5 38 30.63 38 30.63 38 31.77 38 31.77 38 31.9 37.9 32 37.78 32 37.78 32 36.66 32 36.66 32 36.53 32 36.43 32.1 36.43 32.23 36.43 32.23 36.43 34.17 36.43 34.17 36.43 34.3 36.53 34.4 36.66 34.4ZM 37.23 29.6C 37.23 29.6 36.72 29.6 36.72 29.6 36.66 29.6 36.61 29.58 36.57 29.55 36.57 29.55 32.97 26.38 32.97 26.38 32.91 26.33 32.83 26.31 32.75 26.34 32.45 26.44 32.13 26.5 31.81 26.5 31.49 26.5 31.17 26.43 30.88 26.29 30.81 26.25 30.72 26.26 30.65 26.32 30.65 26.32 26.74 29.55 26.74 29.55 26.7 29.58 26.65 29.6 26.6 29.6 26.6 29.6 26.15 29.6 26.15 29.6 25.91 29.6 25.81 29.29 25.99 29.14 25.99 29.14 29.98 25.85 29.98 25.85 30.06 25.77 30.09 25.64 30.02 25.54 29.77 25.17 29.61 24.7 29.61 24.12 29.61 23.68 29.96 23.32 30.4 23.32 30.83 23.32 31.18 23.68 31.18 24.12 31.18 24.23 31.19 24.33 31.21 24.41 31.25 24.57 31.44 24.63 31.57 24.53 31.57 24.53 31.57 24.53 31.57 24.53 31.72 24.41 31.93 24.41 32.07 24.54 32.07 24.54 32.24 24.69 32.24 24.69 32.32 24.76 32.44 24.76 32.53 24.69 32.7 24.56 32.82 24.34 32.82 23.99 32.82 23.27 32.11 23.09 31.98 23.06 31.6 23 31.33 22.67 31.33 22.28 31.33 22.28 31.33 20.23 31.33 20.23 31.33 20.11 31.23 20.01 31.1 20.01 31.1 20.01 30.78 20.01 30.78 20.01 30.78 20.01 30.64 20.01 30.64 20.01 30.53 20.01 30.44 19.93 30.42 19.82 30.42 19.82 29.42 14.68 29.42 14.68 29.39 14.54 29.49 14.41 29.63 14.41 29.63 14.41 30.15 14.41 30.15 14.41 30.15 14.41 30.32 14.41 30.32 14.41 30.44 14.41 30.54 14.3 30.54 14.18 30.54 14.18 30.54 9.54 30.54 9.54 30.54 9.3 30.23 9.22 30.12 9.43 30.12 9.43 21.17 27.02 21.17 27.02 21.15 27.06 21.15 27.09 21.15 27.13 21.15 27.13 21.15 27.2 21.15 27.2 21.15 27.2 21.15 27.44 21.15 27.44 21.15 27.44 21.15 27.78 21.15 27.78 21.15 27.9 21.05 28 20.92 28 20.92 28 18.24 28 18.24 28 18.11 28 18.01 28.11 18.01 28.23 18.01 28.23 18.01 29.37 18.01 29.37 18.01 29.5 17.91 29.6 17.79 29.6 17.79 29.6 7.05 29.6 7.05 29.6 7.05 29.6 6.49 29.6 6.49 29.6 6.37 29.6 6.27 29.5 6.27 29.37 6.27 29.37 6.27 28.23 6.27 28.23 6.27 28.11 6.17 28 6.04 28 6.04 28 2.35 28 2.35 28 2.35 28 1.79 28 1.79 28 1.67 28 1.57 27.9 1.57 27.78 1.57 27.78 1.57 13.04 1.57 13.04 1.57 12.91 1.67 12.81 1.79 12.81 1.79 12.81 13.09 12.81 13.09 12.81 13.21 12.81 13.31 12.91 13.31 13.04 13.31 13.04 13.31 13.61 13.31 13.61 13.31 13.61 13.31 20.46 13.31 20.46 13.31 20.46 13.31 20.46 13.31 20.46 13.31 20.46 12.43 22.9 12.43 22.9 12.37 23.05 12.48 23.2 12.64 23.2 12.64 23.2 13.88 23.2 13.88 23.2 13.95 23.2 14.02 23.17 14.06 23.11 14.06 23.11 30.26 0.07 30.26 0.07 30.33-0.03 30.45-0.06 30.55 0 30.55 0 33.8 2 33.8 2 33.91 2.07 33.94 2.2 33.88 2.31 33.88 2.31 32.92 4.02 32.92 4.02 32.9 4.06 32.89 4.1 32.89 4.14 32.89 4.14 32.89 14.18 32.89 14.18 32.89 14.3 32.99 14.41 33.12 14.41 33.12 14.41 33.79 14.41 33.79 14.41 33.93 14.41 34.03 14.53 34.01 14.67 34.01 14.67 33.3 19.81 33.3 19.81 33.28 19.92 33.19 20.01 33.08 20.01 33.08 20.01 32.93 20.01 32.93 20.01 32.93 20.01 32.89 20.01 32.89 20.01 32.89 20.01 32.89 21.55 32.89 21.55 32.89 21.64 32.94 21.72 33.01 21.76 33.69 22.11 34.38 22.8 34.38 23.99 34.38 24.73 34.13 25.29 33.76 25.7 33.67 25.79 33.68 25.94 33.77 26.03 33.77 26.03 37.38 29.2 37.38 29.2 37.53 29.34 37.44 29.6 37.23 29.6ZM 10.18 16.23C 10.18 16.11 10.08 16.01 9.96 16.01 9.96 16.01 4.92 16.01 4.92 16.01 4.8 16.01 4.7 16.11 4.7 16.23 4.7 16.23 4.7 20.58 4.7 20.58 4.7 20.7 4.8 20.81 4.92 20.81 4.92 20.81 9.96 20.81 9.96 20.81 10.08 20.81 10.18 20.7 10.18 20.58 10.18 20.58 10.18 16.23 10.18 16.23ZM 17.79 20.12C 17.79 20.12 16.28 22.22 16.28 22.22 16.2 22.33 16.23 22.49 16.34 22.56 16.34 22.56 19.72 24.54 19.72 24.54 19.91 24.66 20.13 24.45 20.03 24.25 20.03 24.25 18.17 20.16 18.17 20.16 18.1 20 17.89 19.98 17.79 20.12ZM 19.67 18.96C 19.67 18.96 21.22 22.73 21.22 22.73 21.29 22.9 21.53 22.92 21.62 22.75 21.62 22.75 22.66 20.88 22.66 20.88 22.72 20.77 22.69 20.64 22.6 20.58 22.6 20.58 20.01 18.69 20.01 18.69 19.83 18.56 19.59 18.75 19.67 18.96ZM 21.39 15.14C 21.39 15.14 20.09 16.97 20.09 16.97 20.09 16.97 20.08 16.98 20.08 16.98 20.08 16.98 22.69 18.72 22.69 18.72 22.87 18.84 23.1 18.65 23.02 18.44 23.02 18.44 21.78 15.19 21.78 15.19 21.72 15.02 21.5 14.99 21.39 15.14ZM 23 14.25C 23 14.25 24.19 17.5 24.19 17.5 24.26 17.68 24.51 17.7 24.59 17.52 24.59 17.52 25.49 15.73 25.49 15.73 25.54 15.63 25.51 15.5 25.42 15.44 25.42 15.44 23.33 13.98 23.33 13.98 23.15 13.85 22.92 14.04 23 14.25ZM 25.43 10C 25.39 9.8 25.14 9.75 25.03 9.92 25.03 9.92 23.77 11.79 23.77 11.79 23.7 11.9 23.73 12.04 23.83 12.11 23.83 12.11 25.72 13.35 25.72 13.35 25.89 13.46 26.1 13.31 26.06 13.11 26.06 13.11 25.43 10 25.43 10ZM 26.41 8.66C 26.41 8.66 27.05 11.67 27.05 11.67 27.1 11.88 27.37 11.92 27.47 11.73 27.47 11.73 28.48 9.82 28.48 9.82 28.53 9.72 28.5 9.59 28.4 9.52 28.4 9.52 26.75 8.42 26.75 8.42 26.58 8.31 26.36 8.46 26.41 8.66ZM 28.94 4.42C 28.89 4.22 28.63 4.18 28.53 4.36 28.53 4.36 27.42 6.32 27.42 6.32 27.36 6.43 27.39 6.56 27.49 6.63 27.49 6.63 29.28 7.81 29.28 7.81 29.45 7.92 29.66 7.76 29.62 7.57 29.62 7.57 28.94 4.42 28.94 4.42ZM 31.83 3.52C 31.83 3.52 30.33 2.51 30.33 2.51 30.17 2.4 29.95 2.55 29.99 2.75 29.99 2.75 30.53 5.61 30.53 5.61 30.57 5.83 30.84 5.87 30.94 5.68 30.94 5.68 31.9 3.82 31.9 3.82 31.96 3.71 31.92 3.58 31.83 3.52ZM 32.11 6.5C 32.11 6.26 31.8 6.19 31.69 6.4 31.69 6.4 31.35 7.04 31.35 7.04 31.34 7.08 31.33 7.11 31.33 7.15 31.33 7.15 31.33 14.18 31.33 14.18 31.33 14.3 31.43 14.41 31.55 14.41 31.55 14.41 31.72 14.41 31.72 14.41 31.72 14.41 31.89 14.41 31.89 14.41 32.01 14.41 32.11 14.3 32.11 14.18 32.11 14.18 32.11 6.5 32.11 6.5ZM 19.97 31.2C 22.3 31.2 23.5 32.33 23.5 34 23.5 34 23.5 37.38 23.5 37.38 23.5 39.12 22.35 40 19.97 40 19.97 40 2.74 40 2.74 40 1.01 40 0 38.82 0 36.6 0 36.6 0 34.23 0 34.23 0 32.56 1.33 31.2 2.96 31.2 2.96 31.2 19.97 31.2 19.97 31.2ZM 3.13 36.57C 3.13 36.7 3.23 36.8 3.36 36.8 3.36 36.8 20.14 36.8 20.14 36.8 20.26 36.8 20.36 36.7 20.36 36.57 20.36 36.57 20.36 34.63 20.36 34.63 20.36 34.5 20.26 34.4 20.14 34.4 20.14 34.4 3.36 34.4 3.36 34.4 3.23 34.4 3.13 34.5 3.13 34.63 3.13 34.63 3.13 36.57 3.13 36.57Z" fill="rgb(41,41,41)"/></svg>